<svg width="350" height="40" viewBox="0 0 350 40" fill="none" xmlns="http://www.w3.org/2000/svg">
<path d="M3.712 22.232C2.048 24.408 1.216 26.76 1.216 29.288C1.216 32.296 2.48 34.632 5.008 36.296C6.48 37.288 8.144 37.784 10 37.784C11.888 37.784 13.52 37.416 14.896 36.68C17.488 35.336 18.944 33.08 19.264 29.912C19.296 29.688 19.312 29.464 19.312 29.24C19.312 28.056 18.976 26.776 18.304 25.4C17.664 24.024 16.608 22.76 15.136 21.608L6.496 14.792C4.608 13.32 3.664 11.416 3.664 9.08C3.664 6.744 4.416 4.776 5.92 3.176C7.424 1.544 9.456 0.727998 12.016 0.727998C13.296 0.727998 14.688 0.887998 16.192 1.208H18.112L18.208 7.112H17.728C17.696 5.576 17.136 4.376 16.048 3.512C14.992 2.616 13.648 2.168 12.016 2.168C10.416 2.168 9.072 2.712 7.984 3.8C6.896 4.856 6.352 6.232 6.352 7.928C6.352 9.592 7.056 10.984 8.464 12.104L17.344 19.112C20.864 21.896 22.624 25.256 22.624 29.192C22.624 32.136 21.456 34.664 19.12 36.776C17.104 38.6 14.416 39.512 11.056 39.512C9.008 39.512 7.184 39.128 5.584 38.36C2.576 36.952 0.768 34.552 0.16 31.16C0.0640001 30.648 0.0160002 30.008 0.0160002 29.24C0.0160002 28.44 0.24 27.368 0.688 26.024C1.136 24.648 2 23.272 3.28 21.896L3.712 22.232ZM27.8478 34.52C28.6798 34.52 29.3838 34.232 29.9598 33.656C30.5678 33.048 30.8878 32.328 30.9198 31.496V4.616C30.9198 3.848 30.6158 3.208 30.0078 2.696C29.3998 2.152 28.6798 1.88 27.8478 1.88H27.2718L27.2238 1.4H41.2878C42.2798 1.4 43.3518 1.304 44.5038 1.112C45.6878 0.919999 46.5198 0.727999 46.9998 0.535997V6.584H46.5198V5.72C46.5198 4.952 46.2478 4.296 45.7038 3.752C45.1918 3.208 44.5678 2.92 43.8318 2.888H34.0398V17.72H42.1518C42.7918 17.688 43.3358 17.448 43.7838 17C44.2318 16.552 44.4558 15.992 44.4558 15.32V14.648H44.9358V22.232H44.4558V21.512C44.4558 20.872 44.2318 20.328 43.7838 19.88C43.3678 19.432 42.8398 19.192 42.1998 19.16H34.0398V33.512H40.9038C43.2718 33.512 45.0798 32.984 46.3278 31.928C47.5758 30.872 48.6158 29.304 49.4478 27.224H49.9278L47.1438 35H27.2238V34.52H27.8478ZM71.1254 35.672C66.0694 35.64 61.9414 34.024 58.7414 30.824C55.5734 27.624 53.9894 23.416 53.9894 18.2C53.9894 12.952 55.5734 8.728 58.7414 5.528C61.9414 2.328 66.1654 0.727998 71.4134 0.727998C75.7014 0.727998 79.4934 1.816 82.7894 3.992L83.7494 10.76H83.3174C82.6134 8.008 81.1894 5.896 79.0454 4.424C76.9014 2.92 74.3574 2.168 71.4134 2.168C67.2214 2.168 63.8614 3.624 61.3334 6.536C58.8374 9.448 57.5894 13.304 57.5894 18.104C57.5894 22.904 58.8214 26.776 61.2854 29.72C63.7814 32.632 67.0614 34.136 71.1254 34.232C74.7094 34.232 77.7014 33.256 80.1014 31.304C82.6934 29.192 84.2614 25.752 84.8054 20.984H85.1894L84.6134 28.52C81.7014 33.288 77.2054 35.672 71.1254 35.672ZM100.346 2.888H97.2741V31.496C97.2741 32.328 97.5621 33.048 98.1381 33.656C98.7461 34.232 99.4821 34.52 100.346 34.52H100.922L100.97 35H90.4581V34.52H91.0821C91.9141 34.52 92.6181 34.232 93.1941 33.656C93.8021 33.08 94.1221 32.376 94.1541 31.544V4.904C94.1221 4.072 93.8021 3.368 93.1941 2.792C92.6181 2.184 91.9141 1.88 91.0821 1.88H90.4581V1.4H103.418C106.33 1.4 108.618 2.216 110.282 3.848C111.946 5.448 112.778 7.544 112.778 10.136C112.778 12.696 111.978 14.92 110.378 16.808C108.81 18.664 106.89 19.592 104.618 19.592C105.098 19.816 105.658 20.264 106.298 20.936C106.97 21.576 107.562 22.248 108.074 22.952C110.826 26.888 112.618 29.32 113.45 30.248C114.282 31.144 114.874 31.768 115.226 32.12C115.578 32.44 115.962 32.76 116.378 33.08C116.794 33.4 117.21 33.656 117.626 33.848C118.554 34.296 119.546 34.52 120.602 34.52V35H117.962C116.586 35 115.306 34.76 114.122 34.28C112.938 33.768 112.042 33.256 111.434 32.744C110.858 32.2 110.346 31.688 109.898 31.208C109.482 30.696 108.298 29.032 106.346 26.216C104.394 23.4 103.258 21.8 102.938 21.416C102.618 21 102.282 20.6 101.93 20.216C100.906 19.128 99.8821 18.584 98.8581 18.584V18.104C99.1141 18.136 99.4501 18.152 99.8661 18.152C100.282 18.152 100.794 18.136 101.402 18.104C105.37 18.008 107.866 16.344 108.89 13.112C109.082 12.472 109.178 11.88 109.178 11.336C109.178 10.76 109.178 10.392 109.178 10.232C109.114 8.088 108.554 6.36 107.498 5.048C106.442 3.736 105.018 3.032 103.226 2.936C102.458 2.904 101.498 2.888 100.346 2.888ZM122.113 34.52C122.945 34.52 123.649 34.232 124.225 33.656C124.833 33.048 125.153 32.328 125.185 31.496V4.616C125.185 3.848 124.881 3.208 124.273 2.696C123.665 2.152 122.945 1.88 122.113 1.88H121.537L121.489 1.4H135.553C136.545 1.4 137.617 1.304 138.769 1.112C139.953 0.919999 140.785 0.727999 141.265 0.535997V6.584H140.785V5.72C140.785 4.952 140.513 4.296 139.969 3.752C139.457 3.208 138.833 2.92 138.097 2.888H128.305V17.72H136.417C137.057 17.688 137.601 17.448 138.049 17C138.497 16.552 138.721 15.992 138.721 15.32V14.648H139.201V22.232H138.721V21.512C138.721 20.872 138.497 20.328 138.049 19.88C137.633 19.432 137.105 19.192 136.465 19.16H128.305V33.512H135.169C137.537 33.512 139.345 32.984 140.593 31.928C141.841 30.872 142.881 29.304 143.713 27.224H144.193L141.409 35H121.489V34.52H122.113ZM174.585 5.672C174.585 4.904 174.313 4.248 173.769 3.704C173.225 3.128 172.585 2.824 171.849 2.792H162.729V31.544C162.761 32.376 163.065 33.08 163.641 33.656C164.249 34.232 164.969 34.52 165.801 34.52H166.425V35H155.913V34.52H156.537C157.369 34.52 158.073 34.232 158.648 33.656C159.257 33.08 159.577 32.392 159.609 31.592V2.792H150.489C149.721 2.824 149.065 3.128 148.521 3.704C148.009 4.248 147.753 4.904 147.753 5.672V6.488L147.273 6.536V0.487998C147.753 0.679997 148.585 0.871998 149.769 1.064C150.953 1.256 152.041 1.352 153.033 1.352H169.257C170.825 1.352 172.121 1.24 173.145 1.016C174.201 0.759999 174.841 0.583999 175.065 0.487998V6.536L174.585 6.488V5.672ZM193.696 22.232C192.032 24.408 191.2 26.76 191.2 29.288C191.2 32.296 192.464 34.632 194.992 36.296C196.464 37.288 198.128 37.784 199.984 37.784C201.872 37.784 203.504 37.416 204.88 36.68C207.472 35.336 208.928 33.08 209.248 29.912C209.28 29.688 209.296 29.464 209.296 29.24C209.296 28.056 208.96 26.776 208.288 25.4C207.648 24.024 206.592 22.76 205.12 21.608L196.48 14.792C194.592 13.32 193.648 11.416 193.648 9.08C193.648 6.744 194.4 4.776 195.904 3.176C197.408 1.544 199.44 0.727998 202 0.727998C203.28 0.727998 204.672 0.887998 206.176 1.208H208.096L208.192 7.112H207.712C207.68 5.576 207.12 4.376 206.032 3.512C204.976 2.616 203.632 2.168 202 2.168C200.4 2.168 199.056 2.712 197.968 3.8C196.88 4.856 196.336 6.232 196.336 7.928C196.336 9.592 197.04 10.984 198.448 12.104L207.328 19.112C210.848 21.896 212.608 25.256 212.608 29.192C212.608 32.136 211.44 34.664 209.104 36.776C207.088 38.6 204.4 39.512 201.04 39.512C198.992 39.512 197.168 39.128 195.568 38.36C192.56 36.952 190.752 34.552 190.144 31.16C190.048 30.648 190 30.008 190 29.24C190 28.44 190.224 27.368 190.672 26.024C191.12 24.648 191.984 23.272 193.264 21.896L193.696 22.232ZM248.696 34.52H249.08V35H238.28V34.52H238.712C239.384 34.52 239.88 34.312 240.2 33.896C240.552 33.448 240.728 33.032 240.728 32.648C240.728 32.264 240.664 31.88 240.536 31.496L237.464 23.336H224.504L221.288 31.544C221.16 31.928 221.096 32.312 221.096 32.696C221.096 33.048 221.256 33.448 221.576 33.896C221.928 34.312 222.44 34.52 223.112 34.52H223.544V35H213.896V34.52H214.328C215.128 34.52 215.912 34.264 216.68 33.752C217.448 33.24 218.072 32.488 218.552 31.496L229.4 5.672C230.584 3.08 231.176 1.432 231.176 0.727998H231.608L244.472 31.496C244.92 32.488 245.528 33.24 246.296 33.752C247.064 34.264 247.864 34.52 248.696 34.52ZM225.08 21.896H236.888L231.128 6.488L225.08 21.896ZM285.844 1.88C285.044 1.88 284.356 2.168 283.78 2.744C283.204 3.288 282.9 3.96 282.868 4.76V29.528C282.868 31.384 282.98 33.144 283.204 34.808L283.3 35.672H282.868L256.708 7.736V31.64C256.708 32.44 256.996 33.128 257.572 33.704C258.148 34.248 258.836 34.52 259.636 34.52H260.548V35H250.66V34.52H251.572C252.372 34.52 253.06 34.248 253.636 33.704C254.212 33.128 254.5 32.424 254.5 31.592V6.68C254.5 4.728 254.388 2.984 254.164 1.448L254.068 0.679998H254.548L280.708 28.616V4.808C280.676 3.976 280.372 3.288 279.796 2.744C279.22 2.168 278.532 1.88 277.732 1.88H276.82V1.4H286.708V1.88H285.844ZM317.131 5.672C317.131 4.904 316.859 4.248 316.315 3.704C315.771 3.128 315.131 2.824 314.395 2.792H305.275V31.544C305.307 32.376 305.611 33.08 306.187 33.656C306.795 34.232 307.515 34.52 308.347 34.52H308.971V35H298.459V34.52H299.083C299.915 34.52 300.619 34.232 301.195 33.656C301.803 33.08 302.123 32.392 302.155 31.592V2.792H293.035C292.267 2.824 291.611 3.128 291.067 3.704C290.555 4.248 290.299 4.904 290.299 5.672V6.488L289.819 6.536V0.487998C290.299 0.679997 291.131 0.871998 292.315 1.064C293.499 1.256 294.587 1.352 295.579 1.352H311.803C313.371 1.352 314.667 1.24 315.691 1.016C316.747 0.759999 317.387 0.583999 317.611 0.487998V6.536L317.131 6.488V5.672ZM349.524 34.52H349.908V35H339.108V34.52H339.54C340.212 34.52 340.708 34.312 341.028 33.896C341.38 33.448 341.556 33.032 341.556 32.648C341.556 32.264 341.492 31.88 341.364 31.496L338.292 23.336H325.332L322.116 31.544C321.988 31.928 321.924 32.312 321.924 32.696C321.924 33.048 322.084 33.448 322.404 33.896C322.756 34.312 323.268 34.52 323.94 34.52H324.372V35H314.724V34.52H315.156C315.956 34.52 316.74 34.264 317.508 33.752C318.276 33.24 318.9 32.488 319.38 31.496L330.228 5.672C331.412 3.08 332.004 1.432 332.004 0.727998H332.436L345.3 31.496C345.748 32.488 346.356 33.24 347.124 33.752C347.892 34.264 348.692 34.52 349.524 34.52ZM325.908 21.896H337.716L331.956 6.488L325.908 21.896Z" fill="white"/>
</svg>
