<?xml version="1.0" encoding="UTF-8" standalone="no"?>
<!-- Created with Inkscape (http://www.inkscape.org/) -->

<svg
   xmlns:dc="http://purl.org/dc/elements/1.1/"
   xmlns:cc="http://creativecommons.org/ns#"
   xmlns:rdf="http://www.w3.org/1999/02/22-rdf-syntax-ns#"
   xmlns:svg="http://www.w3.org/2000/svg"
   xmlns="http://www.w3.org/2000/svg"
   xmlns:sodipodi="http://sodipodi.sourceforge.net/DTD/sodipodi-0.dtd"
   xmlns:inkscape="http://www.inkscape.org/namespaces/inkscape"
   width="500mm"
   height="500mm"
   viewBox="0 0 500 500"
   version="1.1"
   id="svg10539"
   inkscape:version="0.92.1 r15371"
   sodipodi:docname="nutcracker_1.svg">
  <defs
     id="defs10533" />
  <sodipodi:namedview
     id="base"
     pagecolor="#d4d4d4"
     bordercolor="#666666"
     borderopacity="1.0"
     inkscape:pageopacity="0"
     inkscape:pageshadow="2"
     inkscape:zoom="0.25000001"
     inkscape:cx="738.96966"
     inkscape:cy="892.34306"
     inkscape:document-units="mm"
     inkscape:current-layer="layer1"
     showgrid="false"
     inkscape:window-width="1366"
     inkscape:window-height="715"
     inkscape:window-x="-8"
     inkscape:window-y="-8"
     inkscape:window-maximized="1" />
  <metadata
     id="metadata10536">
    <rdf:RDF>
      <cc:Work
         rdf:about="">
        <dc:format>image/svg+xml</dc:format>
        <dc:type
           rdf:resource="http://purl.org/dc/dcmitype/StillImage" />
        <dc:title></dc:title>
      </cc:Work>
    </rdf:RDF>
  </metadata>
  <g
     inkscape:label="Layer 1"
     inkscape:groupmode="layer"
     id="layer1"
     transform="translate(0,203)">
    <g
       transform="matrix(3.8632552,0,0,3.8632552,-1287.2314,-714.99208)"
       id="g14273">
      <path
         inkscape:connector-curvature="0"
         id="path12809"
         d="m 420.79245,211.85683 c -15.49138,2.81348 -30.7826,2.7917 -45.76516,0.0139 -0.278,1.88227 -0.60217,3.75794 -0.97203,5.62394 -0.69334,3.49784 -1.40327,6.5454 -1.47124,9.19582 -0.0491,1.91433 0.20455,3.95542 0.67077,6.05907 0.21958,0.99076 0.48017,1.97201 0.78031,2.94142 0.93019,2.79481 -0.61799,5.80832 -3.43183,6.67918 -0.40942,0.12671 -0.82976,0.20041 -1.25161,0.22738 a 31.663563,31.663563 0 0 0 28.55899,18.06142 31.663563,31.663563 0 0 0 28.55018,-18.06194 c -0.41873,-0.0275 -0.8359,-0.10108 -1.2423,-0.22686 -2.81384,-0.87086 -4.36202,-3.88437 -3.43183,-6.67918 0.30012,-0.96941 0.56073,-1.95066 0.78031,-2.94142 0.46622,-2.10365 0.71935,-4.14474 0.67024,-6.05907 -0.068,-2.65042 -0.77737,-5.69798 -1.47071,-9.19582 -0.37079,-1.87061 -0.69564,-3.75094 -0.97409,-5.63789 z m -32.82487,4.0318 c 1.44388,-0.0322 2.89385,0.22192 4.23952,0.74672 v -5.3e-4 c 0.4621,0.24522 0.9003,0.53611 1.30535,0.86714 0.30724,0.25107 0.60622,0.54155 0.73226,0.91777 0.10282,0.30686 0.0782,0.65132 -0.0517,0.94775 -0.12986,0.29642 -0.36116,0.54414 -0.63873,0.71055 -0.36282,0.21753 -0.81449,0.29582 -1.2206,0.17725 -0.38225,-0.11162 -0.69493,-0.38004 -1.01026,-0.62322 -0.67937,-0.52392 -1.42999,-0.96224 -2.23967,-1.24592 -1.41079,-0.49429 -2.9577,-0.502 -4.42865,-0.23564 -1.13297,0.20515 -2.23438,0.56838 -3.28303,1.04386 -0.39172,0.17763 -0.77703,0.37109 -1.14411,0.59531 -0.0193,0.0118 -0.0388,0.024 -0.0599,0.032 -0.006,0.002 -0.0127,0.004 -0.019,0.006 -0.0349,0.009 -0.0721,0.009 -0.10644,-0.002 -0.0344,-0.011 -0.0654,-0.0329 -0.0868,-0.062 -0.0272,-0.0372 -0.038,-0.0852 -0.0351,-0.13126 0.003,-0.0461 0.0183,-0.0902 0.0383,-0.13177 0.0283,-0.0589 0.0661,-0.11281 0.10698,-0.16382 0.0847,-0.10576 0.18269,-0.20024 0.27852,-0.2961 0.16166,-0.16169 0.31872,-0.32802 0.48472,-0.48524 0.69876,-0.66186 1.54329,-1.15335 2.42054,-1.54926 1.29508,-0.58449 2.68359,-0.97364 4.09998,-1.08624 0.20572,-0.0163 0.4118,-0.0264 0.61807,-0.031 z m 19.88664,0 c 0.20627,0.005 0.41235,0.0147 0.61804,0.031 1.41639,0.11261 2.80493,0.50177 4.10001,1.08624 0.87725,0.39591 1.72177,0.88741 2.42054,1.54926 0.16597,0.15723 0.32306,0.32356 0.48472,0.48524 0.0958,0.0959 0.19375,0.19035 0.27852,0.29611 0.0409,0.051 0.0787,0.1049 0.10697,0.16381 0.0201,0.0416 0.0354,0.0857 0.0383,0.13178 0.003,0.0461 -0.008,0.094 -0.0352,0.13126 -0.0214,0.0291 -0.0524,0.051 -0.0868,0.062 -0.0343,0.011 -0.0715,0.0112 -0.10644,0.002 -0.006,-0.002 -0.013,-0.003 -0.019,-0.006 -0.0212,-0.008 -0.0406,-0.0202 -0.06,-0.032 -0.36705,-0.22422 -0.75234,-0.41768 -1.14411,-0.59532 -1.04862,-0.47547 -2.15053,-0.83871 -3.2835,-1.04386 -1.47098,-0.26636 -3.01736,-0.25864 -4.42818,0.23564 -0.80965,0.28368 -1.56027,0.722 -2.23964,1.24592 -0.31533,0.24319 -0.62802,0.51161 -1.01029,0.62322 -0.40608,0.11858 -0.85775,0.0403 -1.22057,-0.17725 -0.27758,-0.16641 -0.50887,-0.41412 -0.63873,-0.71055 -0.12986,-0.29643 -0.15449,-0.64088 -0.0517,-0.94774 0.12605,-0.37623 0.42503,-0.6667 0.73227,-0.91778 0.40505,-0.33102 0.84272,-0.62191 1.30481,-0.86713 v 5.3e-4 c 1.34568,-0.52481 2.79615,-0.77895 4.24006,-0.74673 z m -21.51496,4.6023 c 2.30629,0 5.96087,3.00952 5.96087,4.81573 0,0.62808 -0.66812,0.63871 -1.38131,1.17512 -1.36948,1.03002 -2.62128,2.48183 -4.57956,2.3611 -0.045,0 -0.0851,-0.003 -0.1292,-0.004 -0.0188,5.3e-4 -0.0373,0.004 -0.0563,0.004 -0.0883,0 -0.1741,-0.006 -0.25993,-0.0139 -2.62747,-0.14686 -3.44876,-1.59092 -4.48138,-2.8484 -0.53287,-0.64889 -1.06764,-1.03106 -1.06764,-1.58285 0,-1.16351 4.11683,-3.90623 5.99448,-3.90623 z m 23.14328,0 c 1.87767,0 5.99446,2.74271 5.99446,3.90622 0,0.55179 -0.53475,0.93396 -1.06762,1.58285 -1.03251,1.25734 -1.85412,2.70126 -4.48088,2.84841 -0.086,0.008 -0.17238,0.0139 -0.26096,0.0139 -0.0188,0 -0.037,-0.003 -0.0558,-0.004 -0.0441,7.9e-4 -0.0841,0.004 -0.1292,0.004 -1.95826,0.12073 -3.21008,-1.33107 -4.57956,-2.36109 -0.71319,-0.53641 -1.38131,-0.54705 -1.38131,-1.17513 0,-1.80621 3.65458,-4.81572 5.96087,-4.81572 z m -26.73842,8.85682 a 5.9819325,5.9819325 0 0 1 5.98154,5.98207 5.9819325,5.9819325 0 0 1 -5.98154,5.98206 5.9819325,5.9819325 0 0 1 -5.98207,-5.98206 5.9819325,5.9819325 0 0 1 5.98207,-5.98207 z m 30.33406,0 a 5.9819325,5.9819325 0 0 1 5.98207,5.98207 5.9819325,5.9819325 0 0 1 -5.98207,5.98206 5.9819325,5.9819325 0 0 1 -5.98205,-5.98206 5.9819325,5.9819325 0 0 1 5.98205,-5.98207 z m 6.70451,9.45524 0.003,0.001 c 0.0143,0 0.0274,0.003 0.0388,0.008 0.17881,0.0862 -0.0368,3.92133 -4.162,7.07399 -2.33836,1.77609 -5.29294,2.76527 -8.31424,2.82567 -0.77602,0.0147 -1.50863,-0.0326 -2.19572,-0.11834 0.0682,0.0791 0.1343,0.15044 0.20359,0.23874 0.27191,0.34547 0.54679,0.76863 0.7085,1.29812 0.20794,0.68249 0.18328,1.41111 -0.077,2.07997 -0.26088,0.67026 -0.73702,1.22725 -1.36477,1.58698 h -0.003 c -0.68156,0.39066 -1.39901,0.47842 -2.02573,0.46561 -0.6178,-0.0119 -1.14517,-0.1133 -1.59318,-0.1726 -0.78973,-0.10436 -1.60433,-0.13993 -2.43446,-0.13694 -1.01174,0.004 -2.03126,0.0622 -3.05202,0.16174 -0.41807,0.0408 -0.89059,0.0974 -1.42111,0.0894 h -0.003 c -0.53449,-0.008 -1.12639,-0.0841 -1.71567,-0.34313 -0.77581,-0.34106 -1.44954,-0.96719 -1.75543,-1.85311 -0.19494,-0.56439 -0.20164,-1.13045 -0.10594,-1.64693 v -0.003 c 0.0947,-0.51138 0.28787,-0.95789 0.50488,-1.34824 0.0565,-0.10162 0.11734,-0.19555 0.17725,-0.29145 -0.65379,0.0935 -1.35086,0.15315 -2.08722,0.15916 -3.04295,0.0237 -6.06507,-0.87796 -8.52713,-2.61483 -4.33345,-3.08103 -4.78903,-7.05591 -4.58319,-7.15512 0.16222,-0.0782 0.79687,0.63391 1.88828,1.48829 1.12662,0.88193 2.63115,1.79698 4.46122,2.24999 2.13392,0.53847 4.27551,0.34226 6.04406,-0.26252 2.06965,-0.70877 3.49501,-2.00827 3.89588,-2.26549 1.26408,-0.81093 3.84345,-1.05328 5.48238,0.19172 0.16685,0.12678 0.3138,0.27773 0.44855,0.4408 0.13473,-0.16298 0.28178,-0.31406 0.44855,-0.4408 1.63893,-1.245 4.21828,-1.00265 5.48235,-0.19172 0.42209,0.27082 1.84851,1.48164 3.91449,2.09858 1.74691,0.52144 3.81986,0.62889 5.83014,0.0517 1.72244,-0.48361 3.12113,-1.39044 4.162,-2.2412 0.95166,-0.77777 1.5112,-1.41969 1.72808,-1.42369 z m -21.5656,6.46834 v 0.002 c -0.0486,0.0729 -0.0996,0.14552 -0.15349,0.21756 0.054,-0.072 0.10541,-0.14467 0.15402,-0.21756 z m -0.15402,0.21911 c -0.0825,0.11025 -0.17346,0.21895 -0.26871,0.3266 0.0954,-0.10774 0.18611,-0.21626 0.26871,-0.3266 z m -4.42864,3.89899 c -0.23511,0.2621 -0.44241,0.51919 -0.57465,0.75706 -0.0966,0.17378 -0.1673,0.34124 -0.21138,0.4935 0.0442,-0.15226 0.11533,-0.31972 0.21188,-0.4935 0.13221,-0.23784 0.33928,-0.49494 0.57415,-0.75706 z"
         style="opacity:0.9729996;vector-effect:none;fill:#ddd2c0;fill-opacity:1;stroke:none;stroke-width:0.11634906;stroke-linecap:round;stroke-linejoin:round;stroke-miterlimit:4;stroke-dasharray:none;stroke-dashoffset:0;stroke-opacity:1;paint-order:fill markers stroke" />
      <path
         inkscape:connector-curvature="0"
         id="rect12813"
         d="m 365.36481,149.10408 c -0.15171,0.0692 -0.30361,0.13704 -0.45527,0.20722 -0.4563,0.22482 -0.65463,0.65164 -0.52864,1.13791 l 0.0305,0.1385 0.89091,4.03593 v 0.004 c 0.1448,0.65404 0.3316,1.08053 0.7276,1.58544 0.8912,1.24281 1.95712,2.93163 3.18688,4.99711 2.50688,4.21064 7.23601,12.8196 12.20703,19.5249 2.44824,3.26773 5.2415,6.68733 8.52091,9.03201 2.47684,1.72183 5.32516,3.08399 7.93543,2.96674 0.0425,0.001 0.0846,0.002 0.12713,0.003 2.99128,0.0496 6.13291,-1.36393 8.77155,-3.22358 3.41683,-2.43638 6.28528,-6.0005 8.74935,-9.39012 4.72046,-6.55695 9.06409,-14.91916 11.39774,-19.05414 0.82159,-1.45569 1.56446,-2.71911 2.22674,-3.76669 0.26662,-0.42819 1.19139,-2.16072 1.49294,-3.25561 l 0.76377,-3.45974 0.0775,-0.35037 c 0.0623,-0.26145 -0.0521,-0.67983 -0.33848,-0.80512 -0.23228,-0.10316 -0.46448,-0.20334 -0.6966,-0.30437 -2.46551,6.43311 -18.38245,26.7631 -21.1279,26.28883 -1.90143,-0.32845 -7.06292,-12.27971 -10.24898,-21.91029 -0.70924,-2.1919 -1.62832,-2.16915 -2.3151,-0.0403 -3.18495,9.63748 -8.35787,21.62169 -10.26192,21.9506 -2.74955,0.47497 -18.70398,-19.91082 -21.13309,-26.31208 z m 32.53137,20.34346 a 0.98831327,0.98831327 0 0 1 1.00353,1.00149 v 2.33887 l 1.19891,-0.69246 a 0.75576892,0.75576892 0 0 1 0.33589,-0.10439 0.75576892,0.75576892 0 0 1 0.42066,1.4149 l -1.95546,1.12913 v 1.55443 c 0.70208,-0.42454 1.56348,-0.88276 1.65418,-0.83096 0.0968,0.0554 0.13515,1.16496 0.11266,2.01125 l 1.48518,-0.85731 v -2.25775 a 0.75576892,0.75576892 0 0 1 0.74414,-0.76791 0.75576892,0.75576892 0 0 1 0.7679,0.76791 v 1.38493 l 2.0252,-1.16892 a 0.98831327,0.98831327 0 0 1 0.4403,-0.13901 0.98831327,0.98831327 0 0 1 0.54776,1.85105 l -2.02416,1.1684 1.19941,0.6935 a 0.75576892,0.75576892 0 1 1 -0.75552,1.30793 l -1.95699,-1.12809 -1.34565,0.77669 c 0.71874,0.39572 1.54668,0.91406 1.54668,1.01855 0,0.11149 -0.94202,0.69908 -1.68619,1.10277 l 1.48569,0.85835 1.95646,-1.12965 a 0.75576892,0.75576892 0 0 1 0.41084,-0.10646 0.75576892,0.75576892 0 0 1 0.34468,1.41387 l -1.20148,0.69453 2.02623,1.16996 a 0.98831327,0.98831327 0 1 1 -0.98806,1.70997 l -2.0252,-1.16944 v 1.38752 a 0.75614677,0.75614677 0 0 1 -1.51204,0 v -2.26033 l -1.34567,-0.77618 c 0.0167,0.82017 -0.0183,1.79535 -0.1085,1.84795 -0.0963,0.0561 -1.07612,-0.4658 -1.79785,-0.90847 v 1.71669 l 1.95546,1.12758 a 0.75660617,0.75660617 0 0 1 -0.75655,1.31051 l -1.19891,-0.69298 v 2.33887 a 0.98831327,0.98831327 0 1 1 -1.97559,0 v -2.3399 l -1.20094,0.69401 a 0.75660617,0.75660617 0 1 1 -0.75655,-1.31051 l 1.95749,-1.1281 v -1.55494 c -0.7021,0.42465 -1.56448,0.88224 -1.65518,0.83044 -0.0968,-0.0554 -0.13565,-1.1654 -0.11316,-2.01177 v -5.3e-4 l -1.48571,0.85732 v 2.26033 a 0.75614677,0.75614677 0 0 1 -1.51205,0 v -1.38752 l -2.0252,1.16944 a 0.98831327,0.98831327 0 1 1 -0.98806,-1.70997 l 2.02727,-1.17047 -1.20097,-0.69402 a 0.75576892,0.75576892 0 0 1 0.39534,-1.41387 0.75576892,0.75576892 0 0 1 0.35864,0.10594 l 1.95697,1.12965 1.3467,-0.77721 c -0.71872,-0.39573 -1.54668,-0.91354 -1.54668,-1.01803 0,-0.11148 0.94142,-0.6991 1.68569,-1.10278 l -1.48519,-0.85731 -1.95749,1.12758 a 0.75576892,0.75576892 0 1 1 -0.75398,-1.30793 l 1.19943,-0.69298 -2.02573,-1.16892 a 0.98831327,0.98831327 0 0 1 0.42014,-1.85105 0.98831327,0.98831327 0 0 1 0.56792,0.13901 l 2.0252,1.16892 v -1.38493 a 0.75576892,0.75576892 0 0 1 0.74518,-0.76791 0.75576892,0.75576892 0 0 1 0.76687,0.76791 v 2.25775 l 1.3467,0.77669 c -0.0167,-0.82017 0.0177,-1.79483 0.108,-1.84743 0.0964,-0.0561 1.07752,0.46564 1.79935,0.90847 v -1.71411 l -1.95749,-1.13068 a 0.75576892,0.75576892 0 0 1 0.32247,-1.4149 0.75576892,0.75576892 0 0 1 0.43408,0.10491 l 1.20094,0.69349 v -2.3399 a 0.98831327,0.98831327 0 0 1 0.97206,-1.00149 z m -27.19007,9.65367 4.77901,21.64726 c 0.12525,0.61004 0.0557,1.039 0.64648,1.15445 14.09296,2.70704 28.40588,2.77026 43.07129,0.0796 1.12085,-0.21391 1.0501,-0.85779 1.28569,-1.92495 l 4.17287,-18.90014 c -0.62074,1.19623 -1.27952,2.39958 -1.9885,3.60289 -2.37075,4.06106 -5.61666,8.52368 -10.20609,12.20184 -3.76645,3.03159 -8.73178,5.20901 -14.34693,5.35884 -0.0795,0.002 -0.15909,0.004 -0.23876,0.005 -5.41398,-0.11797 -10.11928,-2.23564 -13.63739,-5.09375 -4.42214,-3.5394 -7.596,-7.80484 -9.96167,-11.68817 -1.32879,-2.15942 -2.51605,-4.32496 -3.576,-6.44302 z"
         style="opacity:0.653;vector-effect:none;fill:#b3d7f1;fill-opacity:1;stroke:none;stroke-width:0.10843992;stroke-linecap:round;stroke-linejoin:round;stroke-miterlimit:4;stroke-dasharray:none;stroke-dashoffset:0;stroke-opacity:1;paint-order:fill markers stroke" />
      <path
         inkscape:connector-curvature="0"
         id="path12836"
         d="m 393.23029,141.05909 c -0.31636,0.0182 -0.63272,0.0365 -0.94877,0.0589 -1.75167,0.13306 -3.72552,0.35609 -5.78829,0.63975 -6.97616,1.04986 -13.87274,3.09843 -20.68245,6.12108 -0.40576,0.1542 -0.61658,0.74676 -0.50332,1.08262 2.24962,6.24323 18.42117,26.93308 21.19043,26.45471 1.90405,-0.32891 7.07697,-12.31312 10.26192,-21.95059 0.68678,-2.12885 1.60586,-2.1516 2.3151,0.0403 3.18606,9.63058 8.34755,21.58184 10.24898,21.91029 2.74976,0.47501 18.71432,-19.92144 21.14135,-26.32087 0.14636,-0.39795 -0.1011,-1.01366 -0.6041,-1.23817 -9.20914,-3.89585 -18.30972,-6.13029 -27.29394,-6.74377 a 5.1362646,5.1362646 0 0 1 -4.65656,2.98225 5.1362646,5.1362646 0 0 1 -4.68035,-3.03651 z m -20.13468,60.31208 a 5.0005001,5.0005001 0 0 0 -1.07022,9.90637 c 16.89627,3.5576 34.19674,3.5984 51.74411,0.006 a 5.0005001,5.0005001 0 1 0 -2.00554,-9.79682 c -16.27367,3.33205 -32.10705,3.28465 -47.67823,0.006 a 5.0005001,5.0005001 0 0 0 -0.99012,-0.12144 z"
         style="opacity:1;vector-effect:none;fill:#c2ade6;fill-opacity:1;stroke:none;stroke-width:0.41762608;stroke-linecap:round;stroke-linejoin:round;stroke-miterlimit:4;stroke-dasharray:none;stroke-dashoffset:0;stroke-opacity:1;paint-order:fill markers stroke" />
      <path
         inkscape:connector-curvature="0"
         id="path13071"
         d="m 397.8961,169.44757 a 0.98831328,0.98831328 0 0 0 -0.9721,1.00153 v 2.34009 l -1.20101,-0.69392 a 0.75576892,0.75576892 0 0 0 -0.43374,-0.10449 0.75576892,0.75576892 0 0 0 -0.32262,1.41487 l 1.95737,1.13068 v 1.71406 c -0.72185,-0.44283 -1.70297,-0.96453 -1.79938,-0.9084 -0.0902,0.0526 -0.1247,1.02728 -0.10807,1.84745 l -1.34635,-0.77684 v -2.25777 a 0.75576892,0.75576892 0 0 0 -0.76723,-0.76782 0.75576892,0.75576892 0 0 0 -0.74497,0.76782 v 1.38482 l -2.02525,-1.16914 a 0.98831328,0.98831328 0 0 0 -0.56774,-0.13877 0.98831328,0.98831328 0 0 0 -0.41999,1.85103 l 2.02526,1.16914 -1.19918,0.69272 a 0.75576892,0.75576892 0 1 0 0.75403,1.30794 l 1.95738,-1.12771 1.48516,0.85734 c -0.74426,0.40368 -1.68626,0.99157 -1.68582,1.10305 0,0.10449 0.82831,0.62202 1.54702,1.01774 l -1.34697,0.77742 -1.95677,-1.12948 a 0.75576892,0.75576892 0 0 0 -0.35869,-0.1064 0.75576892,0.75576892 0 0 0 -0.39534,1.41425 l 1.20101,0.69393 -2.02709,1.17033 a 0.98831328,0.98831328 0 1 0 0.98773,1.70986 l 2.02525,-1.16914 v 1.38724 a 0.75614678,0.75614678 0 0 0 1.5122,0 v -2.26019 l 1.48577,-0.85734 v 6.8e-4 c -0.0224,0.84637 0.0162,1.95609 0.11306,2.01146 0.0907,0.0518 0.95303,-0.40564 1.65515,-0.83029 v 1.55484 l -1.95737,1.12831 a 0.75648922,0.75648922 0 1 0 0.7564,1.31032 l 1.20097,-0.69392 v 2.3401 a 0.98831328,0.98831328 0 1 0 1.97542,0 v -2.3389 l 1.19918,0.69272 a 0.7564895,0.7564895 0 0 0 0.75641,-1.31032 l -1.95559,-1.12771 v -1.71645 c 0.72172,0.44267 1.70184,0.96451 1.79817,0.90839 0.0902,-0.0526 0.12482,-1.02787 0.10807,-1.84804 l 1.34577,0.77624 v 2.26017 a 0.75614678,0.75614678 0 0 0 1.5122,0 v -1.38723 l 2.02529,1.16915 a 0.98831328,0.98831328 0 1 0 0.98769,-1.70986 l -2.02587,-1.16974 1.20158,-0.69452 a 0.75576892,0.75576892 0 0 0 -0.34488,-1.41427 0.75576892,0.75576892 0 0 0 -0.4109,0.10641 l -1.95619,1.13009 -1.48578,-0.85853 c 0.74419,-0.40369 1.68626,-0.99157 1.68583,-1.10306 0,-0.10449 -0.82774,-0.62262 -1.54647,-1.01834 l 1.34576,-0.77682 1.95685,1.12828 a 0.75576892,0.75576892 0 1 0 0.75578,-1.30792 l -1.19978,-0.69332 2.02407,-1.16854 a 0.98831328,0.98831328 0 0 0 -0.54732,-1.85104 0.98831328,0.98831328 0 0 0 -0.44037,0.13878 l -2.02529,1.16915 v -1.38483 a 0.75576892,0.75576892 0 0 0 -0.76781,-0.76782 0.75576892,0.75576892 0 0 0 -0.74439,0.76782 v 2.25778 l -1.48519,0.85733 c 0.0224,-0.84629 -0.0156,-1.95609 -0.11229,-2.01145 -0.0907,-0.0518 -0.95253,0.40635 -1.65458,0.83089 v -1.55424 l 1.95558,-1.1295 a 0.75576892,0.75576892 0 0 0 -0.42055,-1.41487 0.75576892,0.75576892 0 0 0 -0.33585,0.10449 l -1.19918,0.6927 v -2.33889 a 0.98831328,0.98831328 0 0 0 -1.0033,-1.00151 z"
         style="color:#000000;font-style:normal;font-variant:normal;font-weight:normal;font-stretch:normal;font-size:medium;line-height:normal;font-family:sans-serif;font-variant-ligatures:normal;font-variant-position:normal;font-variant-caps:normal;font-variant-numeric:normal;font-variant-alternates:normal;font-feature-settings:normal;text-indent:0;text-align:start;text-decoration:none;text-decoration-line:none;text-decoration-style:solid;text-decoration-color:#000000;letter-spacing:normal;word-spacing:normal;text-transform:none;writing-mode:lr-tb;direction:ltr;text-orientation:mixed;dominant-baseline:auto;baseline-shift:baseline;text-anchor:start;white-space:normal;shape-padding:0;clip-rule:nonzero;display:inline;overflow:visible;visibility:visible;opacity:1;isolation:auto;mix-blend-mode:normal;color-interpolation:sRGB;color-interpolation-filters:linearRGB;solid-color:#000000;solid-opacity:1;vector-effect:none;fill:#fa9390;fill-opacity:1;fill-rule:nonzero;stroke:none;stroke-width:1.97642875;stroke-linecap:round;stroke-linejoin:miter;stroke-miterlimit:4;stroke-dasharray:none;stroke-dashoffset:0;stroke-opacity:1;color-rendering:auto;image-rendering:auto;shape-rendering:auto;text-rendering:auto;enable-background:accumulate" />
      <path
         sodipodi:nodetypes="cccccccccccccccccccccccccccccccc"
         inkscape:connector-curvature="0"
         id="path13088"
         d="m 363.32051,150.40425 c -1.88307,6e-5 -3.40956,1.52656 -3.40961,3.40962 0,1.47357 0.9384,2.74035 2.26621,3.21235 0.54687,0.19123 1.00028,0.78113 1.10897,1.35037 0.26422,1.35901 0.66654,2.99462 1.20955,4.87443 1.53963,5.32988 4.60129,13.86664 9.78648,22.29321 2.36567,3.88333 5.53953,8.14877 9.96167,11.68817 3.51811,2.85811 8.22341,4.97578 13.63739,5.09375 0.0797,-0.001 0.15926,-0.003 0.23876,-0.005 5.61515,-0.14983 10.58048,-2.32725 14.34693,-5.35884 4.58943,-3.67816 7.83534,-8.14078 10.20609,-12.20184 4.87862,-8.28012 7.61476,-16.62725 8.94829,-21.80797 0.47625,-1.8502 0.81714,-3.45219 1.02936,-4.77816 0.0654,-0.43204 0.57753,-0.98199 0.99989,-1.1519 1.32561,-0.47389 2.25938,-1.7394 2.26041,-3.2084 -5e-5,-1.88306 -1.52654,-3.40956 -3.40961,-3.40962 -0.37115,0.001 -0.73964,0.063 -1.0909,0.18294 l -0.76353,3.45955 c -0.30155,1.0949 -1.2263,2.82766 -1.49292,3.25585 -0.66227,1.04758 -1.40541,2.31094 -2.22699,3.76665 -2.33365,4.13496 -6.67729,12.49718 -11.39775,19.05413 -2.46407,3.38962 -5.33252,6.95375 -8.74935,9.39012 -2.63863,1.85965 -5.78027,3.27318 -8.77154,3.22358 -0.0426,-0.001 -0.0846,-0.002 -0.12714,-0.003 -2.61027,0.11725 -5.45859,-1.24492 -7.93543,-2.96675 -3.27941,-2.34468 -6.07267,-5.76427 -8.52091,-9.03201 -4.97102,-6.7053 -9.7001,-15.31426 -12.207,-19.5249 -1.22976,-2.06548 -2.2959,-3.75423 -3.18709,-4.99705 -0.3969,-0.50605 -0.58343,-0.93305 -0.72837,-1.58961 l -0.89099,-4.03595 c -0.35121,-0.12012 -0.71969,-0.18208 -1.09087,-0.18345 z"
         style="fill:#f063bf;fill-opacity:1;stroke:none;stroke-width:0.33838919px;stroke-linecap:butt;stroke-linejoin:miter;stroke-opacity:1" />
      <path
         inkscape:connector-curvature="0"
         id="rect14075"
         d="m 398.21709,245.27133 v 0.002 c -0.38873,0.58314 -0.94509,1.14095 -1.69963,1.62677 -0.25937,0.167 -0.69559,0.40409 -1.25368,0.65474 -0.022,0.0265 -0.0405,0.0508 -0.0631,0.0775 l -0.82216,0.97203 -0.003,-0.003 c -0.4862,0.51776 -1.05066,1.06982 -1.31516,1.54564 -0.12875,0.23171 -0.21212,0.45184 -0.24702,0.64027 -0.0339,0.18335 -0.0209,0.35057 0.0164,0.45889 0.0559,0.16182 0.24688,0.36886 0.48575,0.47387 0.201,0.0883 0.48164,0.14021 0.81028,0.14521 0.33227,0.005 0.71877,-0.0356 1.15911,-0.0786 1.07969,-0.1052 2.17144,-0.1686 3.2701,-0.1726 0.90217,-0.003 1.82096,0.0329 2.74865,0.15555 h 0.003 c 0.52575,0.0695 0.96745,0.14599 1.3317,0.154 0.35536,0.007 0.64582,-0.0577 0.81651,-0.15555 0.14747,-0.0845 0.28561,-0.24276 0.3488,-0.40514 0.0635,-0.16311 0.0709,-0.37737 0.0185,-0.54881 v -0.003 c -0.0432,-0.14131 -0.14507,-0.32604 -0.30697,-0.53175 -0.16359,-0.20783 -0.38801,-0.43953 -0.6444,-0.72089 -0.60965,-0.66899 -1.12932,-1.35271 -1.63504,-1.99781 -0.58957,-0.24872 -1.05079,-0.48959 -1.31932,-0.66249 -0.75451,-0.48582 -1.31035,-1.04311 -1.6991,-1.62626 z"
         style="opacity:1;vector-effect:none;fill:#ea99c2;fill-opacity:1;stroke:none;stroke-width:0.83275163;stroke-linecap:round;stroke-linejoin:round;stroke-miterlimit:4;stroke-dasharray:none;stroke-dashoffset:0;stroke-opacity:1;paint-order:fill markers stroke" />
      <path
         style="opacity:0.922;fill:#81847b;fill-opacity:1;stroke:none;stroke-width:0.34184855px;stroke-linecap:butt;stroke-linejoin:miter;stroke-opacity:1"
         d="m 368.53101,208.62345 c -0.003,0.0179 -0.003,0.0318 -0.005,0.0501 -0.45564,2.9206 -4.51068,6.4859 -5.2504,10.18691 -1.0155,4.01235 0.86179,5.39745 0.87078,7.38663 0.0849,4.36218 -1.91119,7.42133 -0.49657,12.59158 0.81116,2.83164 4.13979,4.40235 6.95364,3.53149 2.81384,-0.87087 4.36196,-3.88434 3.43177,-6.67916 -0.30015,-0.96941 -0.56079,-1.95065 -0.78036,-2.9414 -0.46623,-2.10366 -0.71983,-4.14483 -0.67072,-6.05915 0.068,-2.65042 0.7779,-5.69794 1.47124,-9.19578 0.36986,-1.866 0.69405,-3.74156 0.97204,-5.62383 -1.00192,-0.18575 -2.00276,-0.38297 -3.00188,-0.59334 a 5.0004999,5.0004999 0 0 1 -3.49443,-2.65404 z m 58.75943,0.005 c 1e-5,1.6e-4 -2e-5,3.2e-4 0,4.8e-4 a 5.0004999,5.0004999 0 0 0 0,-4.8e-4 z m 0,4.8e-4 a 5.0004999,5.0004999 0 0 1 -3.52095,2.65419 c -0.9932,0.20335 -1.98546,0.39354 -2.97707,0.57364 0.27845,1.88695 0.60327,3.76717 0.97406,5.63778 0.69334,3.49784 1.40281,6.54554 1.47078,9.19595 0.0491,1.91434 -0.20404,3.95534 -0.67026,6.05899 -0.21958,0.99076 -0.48024,1.97199 -0.78036,2.94141 -0.93019,2.7948 0.61808,5.80828 3.43192,6.67914 2.81386,0.87088 6.14241,-0.69984 6.9535,-3.53149 1.41465,-5.17024 -0.58151,-8.22923 -0.49658,-12.59142 0.009,-1.98918 1.88582,-3.37427 0.87032,-7.38662 -0.73974,-3.70101 -4.79477,-7.26647 -5.2504,-10.18707 -0.003,-0.0163 -0.003,-0.0286 -0.005,-0.0445 z m -39.0523,7.25666 c -0.0903,0 -0.18053,7.9e-4 -0.27077,0.003 l 1.6e-4,7.9e-4 c -0.20627,0.005 -0.41228,0.0152 -0.618,0.0315 -1.41639,0.1126 -2.80495,0.50171 -4.10001,1.08618 -0.87725,0.39591 -1.72173,0.88694 -2.42049,1.54879 -0.16597,0.15723 -0.32359,0.32356 -0.48525,0.48525 -0.0958,0.0959 -0.19326,0.19028 -0.27805,0.29604 -0.0409,0.051 -0.0787,0.10503 -0.10701,0.16393 -0.0201,0.0416 -0.0353,0.0862 -0.0383,0.13228 -0.003,0.0461 0.008,0.094 0.0352,0.13119 0.0214,0.0291 0.0523,0.0506 0.0867,0.0616 0.0343,0.011 0.0716,0.0111 0.10654,0.002 0.006,-0.002 0.0132,-0.004 0.0191,-0.006 0.0212,-0.008 0.0406,-0.0201 0.0599,-0.0319 0.36708,-0.22422 0.75198,-0.41772 1.14372,-0.59536 1.04862,-0.47547 2.15054,-0.83869 3.28351,-1.04384 1.47095,-0.26636 3.01784,-0.25872 4.42863,0.23556 0.80968,0.2837 1.56027,0.72201 2.23967,1.24593 0.31533,0.24317 0.62795,0.51165 1.01019,0.62326 0.40611,0.11857 0.85782,0.0403 1.22064,-0.17726 0.27758,-0.16641 0.50832,-0.41415 0.63815,-0.71058 0.12991,-0.29642 0.15508,-0.64084 0.0523,-0.94769 -0.12604,-0.37623 -0.42505,-0.66668 -0.73228,-0.91776 -0.40505,-0.33103 -0.84322,-0.62199 -1.30532,-0.86721 v 0.001 c -1.26157,-0.492 -2.61485,-0.74663 -3.96881,-0.74997 z m 19.34533,7.9e-4 c -1.35403,0.003 -2.70771,0.25781 -3.96929,0.74982 v -9.6e-4 c -0.46206,0.24522 -0.89979,0.53603 -1.30484,0.86705 -0.30726,0.25109 -0.60625,0.54155 -0.73229,0.91777 -0.10282,0.30686 -0.078,0.65142 0.0518,0.94785 0.12986,0.29643 0.36104,0.54417 0.63862,0.71058 0.36282,0.21754 0.81456,0.29582 1.22063,0.17725 0.38228,-0.11161 0.69486,-0.38009 1.0102,-0.62327 0.67937,-0.52392 1.43002,-0.96223 2.23966,-1.24591 1.41083,-0.49429 2.95719,-0.50208 4.42817,-0.23572 1.13297,0.20515 2.23489,0.56852 3.28351,1.044 0.39177,0.17763 0.77713,0.37098 1.14418,0.5952 0.0193,0.0118 0.0388,0.0241 0.06,0.0321 0.006,0.002 0.0122,0.004 0.0184,0.006 0.0349,0.009 0.0726,0.009 0.10701,-0.002 0.0344,-0.011 0.0656,-0.0323 0.0868,-0.0614 0.0273,-0.0372 0.0379,-0.0853 0.0352,-0.13135 -0.003,-0.0461 -0.0182,-0.0907 -0.0383,-0.13228 -0.0283,-0.0589 -0.0661,-0.11277 -0.107,-0.16377 -0.0848,-0.10577 -0.1827,-0.20019 -0.27853,-0.29605 -0.16166,-0.16168 -0.31881,-0.32802 -0.48478,-0.48525 -0.69876,-0.66185 -1.54324,-1.15287 -2.42049,-1.54878 -1.29508,-0.58448 -2.68362,-0.97358 -4.10001,-1.08618 -0.20569,-0.0164 -0.41172,-0.027 -0.618,-0.0316 v 0 c -0.0902,-0.002 -0.1805,-0.003 -0.27076,-0.003 z m 12.19922,22.91682 c -0.21688,0.004 -0.7764,0.64587 -1.72806,1.42364 -1.04087,0.85076 -2.43959,1.75761 -4.16203,2.24122 -2.01029,0.57722 -4.08318,0.46982 -5.83009,-0.0516 -2.06597,-0.61694 -3.49245,-1.82772 -3.91454,-2.09855 -1.26407,-0.81093 -3.84346,-1.05331 -5.48239,0.19169 -0.16677,0.12674 -0.31378,0.27775 -0.4485,0.44073 -0.13475,-0.16307 -0.28164,-0.31395 -0.44849,-0.44073 -1.63893,-1.245 -4.21831,-1.00262 -5.48239,-0.19169 -0.40089,0.25722 -1.82628,1.55665 -3.89593,2.26541 -1.76856,0.60478 -3.91018,0.80102 -6.04409,0.26256 -1.83007,-0.45302 -3.33458,-1.36813 -4.4612,-2.25006 -1.09141,-0.85438 -1.72603,-1.56632 -1.88825,-1.48815 -0.20585,0.0992 0.24979,4.07406 4.58324,7.15509 2.46205,1.73687 5.48414,2.63846 8.52708,2.6148 0.73637,-0.006 1.43345,-0.0658 2.08723,-0.15926 -0.0599,0.0959 -0.12077,0.18993 -0.17726,0.29155 -0.21701,0.39035 -0.41024,0.83688 -0.50494,1.34827 v 0.003 c -0.0957,0.51648 -0.089,1.08257 0.10592,1.64696 0.30589,0.88591 0.9797,1.51199 1.75551,1.85305 0.58928,0.25905 1.18116,0.33511 1.71565,0.3432 h 0.003 c 0.53052,0.008 1.00309,-0.0487 1.42115,-0.0895 1.02077,-0.0995 2.04024,-0.15817 3.05198,-0.16175 0.83013,-0.003 1.64472,0.0328 2.43445,0.1371 0.44802,0.0593 0.97549,0.16059 1.59329,0.17244 0.62672,0.0128 1.34409,-0.0748 2.02566,-0.46554 h 0.003 c 0.62775,-0.35974 1.10398,-0.91669 1.36486,-1.58695 0.2603,-0.66886 0.28488,-1.39744 0.0769,-2.07993 -0.16171,-0.52948 -0.43649,-0.9527 -0.7084,-1.29818 -0.0693,-0.0883 -0.13539,-0.15973 -0.20363,-0.23882 0.6871,0.0857 1.41976,0.13318 2.19578,0.11848 3.0213,-0.0604 5.97581,-1.04962 8.31416,-2.82571 4.12523,-3.15266 4.34085,-6.98779 4.16205,-7.07399 -0.0114,-0.005 -0.0243,-0.008 -0.0388,-0.008 z m -21.56561,6.4684 c 0.38875,0.58315 0.94455,1.14035 1.69906,1.62617 0.26853,0.1729 0.72926,0.41378 1.31881,0.66251 0.50572,0.6451 1.02598,1.32875 1.63563,1.99773 0.25639,0.28137 0.4803,0.51314 0.64389,0.72097 0.1619,0.20572 0.26419,0.39047 0.30737,0.53178 v 0.003 c 0.0523,0.17144 0.0449,0.38571 -0.0185,0.54882 -0.0632,0.16239 -0.20174,0.32072 -0.34925,0.40523 -0.17069,0.0978 -0.46067,0.16247 -0.81603,0.15554 -0.36425,-0.008 -0.80592,-0.0845 -1.33167,-0.15399 h -0.003 c -0.92769,-0.12265 -1.84646,-0.15886 -2.74864,-0.15554 -1.09865,0.004 -2.19033,0.0673 -3.27002,0.17244 -0.44034,0.043 -0.82681,0.0832 -1.15907,0.0786 -0.32864,-0.005 -0.60928,-0.0568 -0.81029,-0.14515 -0.23886,-0.10502 -0.42999,-0.31211 -0.48587,-0.47393 -0.0375,-0.10832 -0.0503,-0.27553 -0.0163,-0.45888 0.0349,-0.18843 0.11767,-0.40847 0.24642,-0.64018 0.2645,-0.47581 0.8295,-1.02792 1.3157,-1.54568 l 0.003,0.003 0.8227,-0.97205 c 0.0225,-0.0267 0.0411,-0.0509 0.0631,-0.0774 0.55809,-0.25065 0.9943,-0.48776 1.25367,-0.65475 0.75454,-0.48582 1.31095,-1.04365 1.69968,-1.62679 z"
         id="path13207"
         inkscape:connector-curvature="0" />
      <path
         inkscape:connector-curvature="0"
         id="path13913"
         d="m 382.74412,229.34775 a 5.9819325,5.9819325 0 0 0 -5.98207,5.98207 5.9819325,5.9819325 0 0 0 5.98207,5.98206 5.9819325,5.9819325 0 0 0 5.98154,-5.98206 5.9819325,5.9819325 0 0 0 -5.98154,-5.98207 z m 30.33406,0 a 5.9819325,5.9819325 0 0 0 -5.98205,5.98207 5.9819325,5.9819325 0 0 0 5.98205,5.98206 5.9819325,5.9819325 0 0 0 5.98207,-5.98206 5.9819325,5.9819325 0 0 0 -5.98207,-5.98207 z"
         style="opacity:1;vector-effect:none;fill:#fcb4b2;fill-opacity:1;stroke:none;stroke-width:38.92460632;stroke-linecap:round;stroke-linejoin:round;stroke-miterlimit:4;stroke-dasharray:none;stroke-dashoffset:0;stroke-opacity:1;paint-order:fill markers stroke" />
      <path
         inkscape:connector-curvature="0"
         id="path14010"
         d="m 407.61186,221.44901 c -0.46323,0.22452 -0.90567,0.51475 -1.31104,0.84595 -0.7258,0.59301 -1.35763,1.29897 -1.86705,2.08566 a 0.3207816,0.3207816 0 0 1 -0.59325,-0.12506 c -0.20193,0.37246 -0.31885,0.73082 -0.31885,1.0511 0,0.62808 0.66812,0.63871 1.38131,1.17512 1.36948,1.03002 2.6213,2.48183 4.57956,2.3611 0.0449,0 0.0847,-0.003 0.12867,-0.004 -1.69653,-0.0402 -3.16569,-1.87764 -3.16569,-4.14238 0,-1.31654 0.43477,-2.48775 1.16634,-3.24735 z m -19.40192,5.3e-4 c 0.73139,0.75961 1.16633,1.9306 1.16633,3.24683 0,2.26475 -1.46962,4.10216 -3.16621,4.14238 0.0441,8e-4 0.0841,0.004 0.1292,0.004 1.95828,0.12073 3.21008,-1.33107 4.57956,-2.36109 0.71319,-0.53642 1.38131,-0.54705 1.38131,-1.17513 0,-0.31992 -0.11631,-0.67804 -0.31782,-1.05006 a 0.3207816,0.3207816 0 0 1 -0.59375,0.12402 c -0.50948,-0.78669 -1.14334,-1.49265 -1.86915,-2.08566 -0.40505,-0.33096 -0.84661,-0.62093 -1.30947,-0.84543 z m 23.28489,0.0894 c 0.73277,0.79103 1.28776,1.96156 1.28776,3.15743 0,2.43579 -1.18497,3.99537 -2.87166,4.13257 2.6403,-0.14185 3.46371,-1.58887 4.49845,-2.84892 0.53287,-0.64889 1.06762,-1.03106 1.06762,-1.58285 0,-0.15292 -0.0743,-0.33409 -0.20204,-0.53175 a 0.3207816,0.3207816 0 0 1 -0.49353,0.0584 c -0.64307,-0.59346 -1.32879,-1.14154 -2.04896,-1.63866 -0.40248,-0.27782 -0.81243,-0.53407 -1.23764,-0.74621 z m -27.16993,0.002 c -0.42412,0.21185 -0.83357,0.4675 -1.23507,0.74466 -0.72015,0.49712 -1.40589,1.0452 -2.04896,1.63866 a 0.3207816,0.3207816 0 0 1 -0.49713,-0.0543 c -0.12615,0.19607 -0.19896,0.37574 -0.19896,0.52761 0,0.55179 0.53477,0.93396 1.06764,1.58285 1.0346,1.2599 1.85791,2.70676 4.49739,2.84892 -1.68637,-0.13747 -2.87113,-1.69702 -2.87113,-4.13256 0,-1.19505 0.5542,-2.36487 1.28622,-3.15588 z m 2.92333,1.07177 a 0.79139959,0.79139959 0 0 0 -0.79116,0.79168 0.79139959,0.79139959 0 0 0 0.79116,0.79117 0.79139959,0.79139959 0 0 0 0.79169,-0.79117 0.79139959,0.79139959 0 0 0 -0.79169,-0.79168 z m 21.32481,0 a 0.79139959,0.79139959 0 0 0 -0.79116,0.79168 0.79139959,0.79139959 0 0 0 0.79116,0.79117 0.79139959,0.79139959 0 0 0 0.79169,-0.79117 0.79139959,0.79139959 0 0 0 -0.79169,-0.79168 z"
         style="opacity:1;vector-effect:none;fill:#ffffff;fill-opacity:1;stroke:none;stroke-width:16.06987572;stroke-linecap:round;stroke-linejoin:round;stroke-miterlimit:4;stroke-dasharray:none;stroke-dashoffset:0;stroke-opacity:1;paint-order:fill markers stroke" />
      <path
         style="color:#000000;font-style:normal;font-variant:normal;font-weight:normal;font-stretch:normal;font-size:medium;line-height:normal;font-family:sans-serif;font-variant-ligatures:normal;font-variant-position:normal;font-variant-caps:normal;font-variant-numeric:normal;font-variant-alternates:normal;font-feature-settings:normal;text-indent:0;text-align:start;text-decoration:none;text-decoration-line:none;text-decoration-style:solid;text-decoration-color:#000000;letter-spacing:normal;word-spacing:normal;text-transform:none;writing-mode:lr-tb;direction:ltr;text-orientation:mixed;dominant-baseline:auto;baseline-shift:baseline;text-anchor:start;white-space:normal;shape-padding:0;clip-rule:nonzero;display:inline;overflow:visible;visibility:visible;opacity:1;isolation:auto;mix-blend-mode:normal;color-interpolation:sRGB;color-interpolation-filters:linearRGB;solid-color:#000000;solid-opacity:1;vector-effect:none;fill:#241c1c;fill-opacity:1;fill-rule:nonzero;stroke:none;stroke-width:0.6414991;stroke-linecap:round;stroke-linejoin:miter;stroke-miterlimit:4;stroke-dasharray:none;stroke-dashoffset:0;stroke-opacity:1;color-rendering:auto;image-rendering:auto;shape-rendering:auto;text-rendering:auto;enable-background:accumulate"
         d="m 386.4023,220.34984 c -0.68858,-0.001 -1.35805,0.17213 -1.97247,0.4336 -0.61357,0.26111 -1.17437,0.60795 -1.70541,0.97453 -0.74504,0.5143 -1.45344,1.08106 -2.11871,1.69502 a 0.32078159,0.32078159 0 1 0 0.43516,0.47083 c 0.64306,-0.59346 1.32877,-1.14162 2.04891,-1.63874 0.40151,-0.27716 0.81094,-0.53268 1.23506,-0.74453 -0.73202,0.791 -1.28623,1.96083 -1.28623,3.15588 0,2.55188 1.29944,4.14591 3.11509,4.14591 1.72043,0 3.22257,-1.85597 3.22257,-4.14591 0,-1.31623 -0.43497,-2.48731 -1.16636,-3.24692 0.46287,0.2245 0.90445,0.51454 1.3095,0.8455 0.72581,0.59301 1.35955,1.29898 1.86903,2.08567 a 0.32078159,0.32078159 0 1 0 0.53906,-0.34738 c -0.54592,-0.84296 -1.22422,-1.60114 -2.00193,-2.23657 -0.98253,-0.80278 -2.19652,-1.44415 -3.52327,-1.44689 z m 23.01763,0 c -1.32679,0.003 -2.54276,0.64411 -3.52529,1.44689 -0.77771,0.63543 -1.454,1.39361 -1.99992,2.23657 a 0.32078159,0.32078159 0 1 0 0.53907,0.34738 c 0.50942,-0.78669 1.1412,-1.49266 1.86701,-2.08567 0.40536,-0.3312 0.84781,-0.62144 1.31104,-0.84597 -0.73157,0.75961 -1.16636,1.93085 -1.16636,3.24739 0,2.28994 1.50155,4.14591 3.22196,4.14591 1.81567,0 3.11509,-1.59403 3.11509,-4.14591 0,-1.19588 -0.55502,-2.36641 -1.28779,-3.15744 0.42522,0.21214 0.83521,0.46827 1.2377,0.74609 0.72016,0.49712 1.40585,1.04528 2.04892,1.63874 a 0.32078159,0.32078159 0 1 0 0.43561,-0.47083 c -0.66529,-0.61396 -1.37417,-1.18072 -2.11916,-1.69502 -0.53108,-0.36658 -1.09185,-0.71342 -1.70542,-0.97453 -0.61439,-0.26147 -1.28391,-0.4347 -1.97246,-0.4336 z m -22.17182,2.26246 a 0.79139957,0.79139957 0 0 1 0.79168,0.79168 0.79139957,0.79139957 0 0 1 -0.79168,0.79107 0.79139957,0.79139957 0 0 1 -0.79107,-0.79107 0.79139957,0.79139957 0 0 1 0.79107,-0.79168 z m 21.32492,0 a 0.79139957,0.79139957 0 0 1 0.79169,0.79168 0.79139957,0.79139957 0 0 1 -0.79169,0.79107 0.79139957,0.79139957 0 0 1 -0.79122,-0.79107 0.79139957,0.79139957 0 0 1 0.79122,-0.79168 z"
         id="path14199"
         inkscape:connector-curvature="0" />
      <circle
         r="5.1362648"
         cy="138.95918"
         cx="397.91064"
         id="path12815"
         style="opacity:1;vector-effect:none;fill:#fa9390;fill-opacity:1;stroke:none;stroke-width:0.12789513;stroke-linecap:round;stroke-linejoin:round;stroke-miterlimit:4;stroke-dasharray:none;stroke-dashoffset:0;stroke-opacity:1;paint-order:fill markers stroke" />
    </g>
  </g>
</svg>
