<?xml version="1.0" encoding="UTF-8" standalone="no"?>
<!-- Created with Inkscape (http://www.inkscape.org/) -->

<svg
   xmlns:dc="http://purl.org/dc/elements/1.1/"
   xmlns:cc="http://creativecommons.org/ns#"
   xmlns:rdf="http://www.w3.org/1999/02/22-rdf-syntax-ns#"
   xmlns:svg="http://www.w3.org/2000/svg"
   xmlns="http://www.w3.org/2000/svg"
   xmlns:sodipodi="http://sodipodi.sourceforge.net/DTD/sodipodi-0.dtd"
   xmlns:inkscape="http://www.inkscape.org/namespaces/inkscape"
   width="500mm"
   height="500mm"
   viewBox="0 0 500 500"
   version="1.1"
   id="svg10539"
   inkscape:version="0.92.1 r15371"
   sodipodi:docname="penguin_face.svg">
  <defs
     id="defs10533" />
  <sodipodi:namedview
     id="base"
     pagecolor="#d4d4d4"
     bordercolor="#666666"
     borderopacity="1.0"
     inkscape:pageopacity="0"
     inkscape:pageshadow="2"
     inkscape:zoom="0.25"
     inkscape:cx="384.41402"
     inkscape:cy="950.3829"
     inkscape:document-units="mm"
     inkscape:current-layer="g10483"
     showgrid="false"
     inkscape:window-width="1366"
     inkscape:window-height="715"
     inkscape:window-x="-8"
     inkscape:window-y="-8"
     inkscape:window-maximized="1" />
  <metadata
     id="metadata10536">
    <rdf:RDF>
      <cc:Work
         rdf:about="">
        <dc:format>image/svg+xml</dc:format>
        <dc:type
           rdf:resource="http://purl.org/dc/dcmitype/StillImage" />
        <dc:title />
      </cc:Work>
    </rdf:RDF>
  </metadata>
  <g
     inkscape:label="Layer 1"
     inkscape:groupmode="layer"
     id="layer1"
     transform="translate(0,203)">
    <g
       id="g10483"
       transform="matrix(7.2182414,0,0,7.2182414,-4183.9672,-631.69578)">
      <path
         inkscape:connector-curvature="0"
         id="path10280"
         d="m 594.82326,71.414761 c -1.35361,-0.01923 -2.73405,0.05846 -4.13412,0.268719 -0.6368,0.09564 -1.43206,0.233934 -2.1151,0.369485 -1.78592,0.378124 -3.54328,1.654254 -4.83743,3.059761 -0.898,0.986469 -1.60034,1.975739 -1.80817,3.076815 -0.003,0.01384 -0.006,0.02791 -0.009,0.04186 -0.24042,1.637792 0.31724,2.955999 1.38906,3.41013 0.3564,0.150998 0.81614,0.04077 1.01338,-0.07906 0.19725,-0.119838 0.27483,-0.215956 0.34468,-0.29404 0.13964,-0.156167 0.2228,-0.27319 0.33745,-0.400491 0.22796,-0.25317 0.5239,-0.525098 1.10175,-0.736389 0.97221,-0.311941 1.84523,-0.610772 2.70526,-0.803052 1.05206,-0.235223 1.91227,-0.360252 2.87837,-0.421164 3.41781,-0.194898 8.25466,0.381005 12.74496,1.49965 4.55609,1.135039 10.25966,3.376885 12.67571,4.570264 2.54613,1.257642 2.25697,1.010965 4.05712,1.835547 1.53077,0.701188 3.34724,1.737265 5.78413,1.292945 0.95166,-0.173516 1.85471,-0.509019 2.67425,-0.984438 0.003,-0.0013 0.005,-0.0027 0.009,-0.0041 0.8399,-0.498605 1.4723,-0.994008 1.92133,-1.551845 0.449,-0.557837 0.73146,-1.258681 0.59428,-1.968871 -0.13721,-0.710189 -0.64561,-1.23635 -1.22629,-1.579231 -0.58071,-0.342882 -1.27934,-0.560099 -2.10476,-0.709002 l 0.0708,0.01447 c -3.03786,-0.775158 -5.66401,-1.584269 -8.16641,-2.749187 -2.96797,-1.378622 -9.63862,-4.091207 -14.5092,-5.304584 -3.49774,-0.871376 -7.32774,-1.796293 -11.39052,-1.854152 z m -1.51567,10.699088 c -0.35372,-0.02236 -0.72361,0.0701 -1.06402,0.299207 -1.06527,0.630909 -2.0986,1.3888 -2.82411,2.300634 -0.78044,0.908301 -1.37586,2.111113 -1.84536,3.497461 -0.0109,0.03244 -0.0214,0.06501 -0.0321,0.09767 -0.47611,1.461881 -0.70516,3.108505 -0.87383,4.717542 -0.83029,8.465007 0.86883,15.041577 -0.43098,15.542207 -0.14846,0.0572 -0.36767,-0.0137 -0.63098,-0.19948 0.34078,0.41658 0.6949,0.82379 1.06815,1.21595 7.68146,7.59467 27.18011,7.25 34.86298,0.3669 0.5048,-0.50611 0.97994,-1.03649 1.42885,-1.58543 -0.26487,0.18759 -0.48495,0.25949 -0.63407,0.20206 -1.29982,-0.50063 0.39931,-7.07721 -0.43098,-15.542207 -0.16867,-1.609037 -0.39772,-3.255661 -0.87384,-4.717542 -0.0106,-0.03266 -0.0212,-0.06523 -0.032,-0.09767 -0.0366,-0.108077 -0.075,-0.213048 -0.11316,-0.318842 -1.74985,-0.708398 -3.42593,-1.520176 -5.08963,-2.256194 -1.06119,-0.469485 -2.13477,-0.91099 -3.2153,-1.334286 -2.93537,2.956854 -7.21921,6.515761 -8.3933,6.470407 -1.63973,-0.08491 -8.76839,-7.0376 -9.90893,-8.269261 -0.27615,-0.229542 -0.61368,-0.366755 -0.9674,-0.389126 z m 48.00637,6.68383 c 0.44365,0.843423 0.84775,1.723612 1.16324,2.653586 0.10612,0.312782 0.24411,0.719833 0.24392,1.232998 -8e-5,0.25863 -0.0391,0.539255 -0.14624,0.82424 -0.10832,0.287946 -0.28149,0.567788 -0.54623,0.800468 -0.24066,0.211566 -0.51223,0.344043 -0.78443,0.419613 -0.26993,0.07495 -0.53047,0.09176 -0.77156,0.07493 -0.47884,-0.03347 -0.85939,-0.189613 -1.15755,-0.323495 -1.1856,-0.53235 -2.08039,-1.273567 -2.93883,-1.754415 -0.06,-0.03358 -0.13478,-0.06973 -0.19844,-0.103352 a 5.3485957,5.3485957 0 0 0 -0.11782,0.460955 5.3485957,5.3485957 0 0 0 -0.10697,1.062466 5.3485957,5.3485957 0 0 0 4.81417,5.322157 5.3485957,5.3485957 0 0 0 0.53486,0.02687 5.3485957,5.3485957 0 0 0 1.02579,-0.104386 5.3485957,5.3485957 0 0 0 0.40463,-0.09095 5.3485957,5.3485957 0 0 0 0.33848,-0.112139 5.3485957,5.3485957 0 0 0 1.55546,-0.851627 5.3485957,5.3485957 0 0 0 2.02311,-4.189926 5.3485957,5.3485957 0 0 0 -0.0754,-0.895551 5.3485957,5.3485957 0 0 0 -0.28268,-1.02888 5.3485957,5.3485957 0 0 0 0,-0.0011 5.3485957,5.3485957 0 0 0 -0.48212,-0.952913 5.3485957,5.3485957 0 0 0 -0.31007,-0.435634 5.3485957,5.3485957 0 0 0 -0.35192,-0.402558 5.3485957,5.3485957 0 0 0 -0.39015,-0.365353 5.3485957,5.3485957 0 0 0 -0.42479,-0.324527 5.3485957,5.3485957 0 0 0 -0.45527,-0.280604 5.3485957,5.3485957 0 0 0 -0.48059,-0.233577 5.3485957,5.3485957 0 0 0 -0.50178,-0.184486 5.3485957,5.3485957 0 0 0 -0.40719,-0.10542 5.3485957,5.3485957 0 0 0 -0.11473,-0.02894 5.3485957,5.3485957 0 0 0 -0.39637,-0.06098 5.3485957,5.3485957 0 0 0 -0.12814,-0.01963 5.3485957,5.3485957 0 0 0 -0.003,0 5.3485957,5.3485957 0 0 0 -0.48885,-0.02585 5.3485957,5.3485957 0 0 0 -0.0424,-0.0021 z m -47.57952,3.533635 v 5.29e-4 a 0.42315436,0.42315436 0 0 1 0.39635,0.265102 c 0.12994,0.312616 0.23923,0.634262 0.32713,0.961181 0.064,0.238059 0.11557,0.479515 0.15658,0.722437 0.19005,-0.02011 0.38111,-0.03408 0.57309,-0.03514 v -5.29e-4 c 0.0339,-0.0011 0.0679,0.0019 0.10181,0.0021 0.0402,-0.23182 0.0898,-0.462023 0.15089,-0.689361 0.0879,-0.326924 0.19719,-0.64856 0.3271,-0.961184 a 0.42315436,0.42315436 0 0 1 0.385,-0.265099 0.42315436,0.42315436 0 0 1 0.39688,0.590145 c -0.11573,0.278419 -0.21265,0.564621 -0.29094,0.855761 -0.0485,0.18021 -0.0895,0.362712 -0.12351,0.546221 0.16489,0.02823 0.3292,0.06177 0.49194,0.106969 0.045,0.01252 0.0892,0.02702 0.13385,0.04082 0.17153,-0.233698 0.35537,-0.458068 0.5519,-0.671277 0.22945,-0.248931 0.47429,-0.483436 0.73432,-0.700214 a 0.42315436,0.42315436 0 0 1 0.25993,-0.101804 0.42315436,0.42315436 0 0 1 0.28218,0.752409 c -0.23159,0.193061 -0.4499,0.401537 -0.65424,0.623218 -0.12713,0.13794 -0.24857,0.280768 -0.36433,0.428397 0.24532,0.12758 0.4798,0.276392 0.70022,0.443902 0.17997,-0.147341 0.36558,-0.287176 0.55811,-0.417547 0.28036,-0.189798 0.57317,-0.361119 0.87593,-0.51263 a 0.42315436,0.42315436 0 0 1 0.19119,-0.04754 0.42315436,0.42315436 0 0 1 0.18759,0.804085 c -0.26961,0.134921 -0.53017,0.288308 -0.77981,0.457337 -0.26265,0.177822 -0.51263,0.374288 -0.74826,0.586529 a 0.54405558,0.54405558 0 0 1 -0.80667,0.10387 c -0.41015,-0.342794 -0.89828,-0.598599 -1.41335,-0.741558 -0.73244,-0.202957 -1.53971,-0.183537 -2.31044,0.0041 -0.75806,0.184618 -1.48069,0.526225 -2.10376,0.995804 a 0.54405558,0.54405558 0 0 1 -0.79634,-0.126089 c -0.2385,-0.215633 -0.49078,-0.416058 -0.75705,-0.596347 -0.24964,-0.16904 -0.5107,-0.321374 -0.78031,-0.456303 a 0.42315436,0.42315436 0 0 1 0.17465,-0.804085 0.42315436,0.42315436 0 0 1 0.20412,0.04702 c 0.30274,0.151501 0.59455,0.323864 0.8749,0.513665 0.20217,0.136909 0.39738,0.284009 0.586,0.439248 0.28128,-0.199496 0.57703,-0.376542 0.88469,-0.531233 -0.10623,-0.134149 -0.21685,-0.265401 -0.3328,-0.391189 -0.20433,-0.221692 -0.42367,-0.430168 -0.65524,-0.623218 a 0.42315436,0.42315436 0 0 1 0.27028,-0.751893 0.42315436,0.42315436 0 0 1 0.2718,0.102835 c 0.26004,0.216784 0.50591,0.449737 0.73536,0.698667 0.18198,0.19743 0.35234,0.405733 0.51263,0.621149 0.21447,-0.0756 0.43246,-0.140922 0.65371,-0.194818 0.004,-0.0011 0.009,-0.0021 0.013,-0.0031 -0.0365,-0.21708 -0.0818,-0.432811 -0.13901,-0.645441 -0.0783,-0.291137 -0.17624,-0.57735 -0.29197,-0.85576 a 0.42315436,0.42315436 0 0 1 0.385,-0.590145 z m 18.89911,0 v 5.29e-4 a 0.42315436,0.42315436 0 0 1 0.39635,0.265102 c 0.12993,0.312616 0.23921,0.634262 0.32713,0.961181 0.064,0.238059 0.11557,0.479515 0.15658,0.722437 0.19005,-0.02011 0.38108,-0.03408 0.57308,-0.03514 v -5.29e-4 c 0.0339,-0.0011 0.0679,0.0019 0.10179,0.0021 0.0402,-0.23182 0.0898,-0.462023 0.15092,-0.689361 0.0879,-0.326924 0.19719,-0.64856 0.3271,-0.961184 a 0.42315436,0.42315436 0 0 1 0.38447,-0.265099 0.42315436,0.42315436 0 0 1 0.39687,0.590145 c -0.1157,0.278419 -0.21219,0.564621 -0.2904,0.855761 -0.0485,0.18021 -0.09,0.362712 -0.12404,0.546221 0.16492,0.02823 0.32919,0.06177 0.49197,0.106969 0.045,0.01252 0.0897,0.02702 0.13435,0.04082 0.17153,-0.233698 0.35536,-0.458068 0.5519,-0.671277 0.22944,-0.248931 0.47429,-0.483436 0.73432,-0.700214 a 0.42315436,0.42315436 0 0 1 0.25993,-0.101804 0.42315436,0.42315436 0 0 1 0.28215,0.752409 c -0.23154,0.193061 -0.44987,0.401537 -0.65421,0.623218 -0.12713,0.13794 -0.2491,0.280768 -0.36483,0.428397 0.24529,0.12758 0.47979,0.276392 0.70022,0.443902 0.17994,-0.147341 0.36554,-0.287176 0.55808,-0.417547 0.28035,-0.189798 0.57372,-0.361119 0.87643,-0.51263 a 0.42315436,0.42315436 0 0 1 0.19122,-0.04754 0.42315436,0.42315436 0 0 1 0.18759,0.804085 c -0.26961,0.134921 -0.5307,0.288308 -0.78031,0.457337 -0.26268,0.177822 -0.51213,0.374288 -0.74777,0.586529 a 0.54405558,0.54405558 0 0 1 -0.80719,0.10387 c -0.41013,-0.342794 -0.89828,-0.598599 -1.41335,-0.741558 -0.73242,-0.202957 -1.53971,-0.183537 -2.31045,0.0041 -0.75803,0.184618 -1.48068,0.526225 -2.10375,0.995804 a 0.54405558,0.54405558 0 0 1 -0.79581,-0.126089 c -0.2385,-0.215633 -0.49131,-0.416058 -0.75759,-0.596347 -0.24963,-0.16904 -0.51069,-0.321374 -0.78031,-0.456303 a 0.42315436,0.42315436 0 0 1 0.17468,-0.804085 0.42315436,0.42315436 0 0 1 0.2041,0.04702 c 0.30277,0.151501 0.59457,0.323864 0.8749,0.513665 0.20222,0.136909 0.3974,0.284009 0.586,0.439248 0.28128,-0.199496 0.57758,-0.376542 0.88522,-0.531233 -0.10623,-0.134149 -0.21736,-0.265401 -0.3333,-0.391189 -0.20434,-0.221692 -0.4232,-0.430168 -0.65474,-0.623218 a 0.42315436,0.42315436 0 0 1 0.27025,-0.751893 0.42315436,0.42315436 0 0 1 0.2713,0.102835 c 0.26003,0.216784 0.50594,0.449737 0.73536,0.698667 0.182,0.19743 0.35234,0.405733 0.51263,0.621149 0.2145,-0.0756 0.43249,-0.140922 0.6537,-0.194818 0.004,-0.0011 0.0101,-0.0021 0.0135,-0.0031 -0.0365,-0.21708 -0.0823,-0.432811 -0.13952,-0.645441 -0.0783,-0.291137 -0.17576,-0.57735 -0.29146,-0.85576 a 0.42315436,0.42315436 0 0 1 0.38499,-0.590145 z m -31.38207,6.176883 c 0.14859,1.092039 0.38751,2.158623 0.71469,3.192053 -0.28241,-0.96935 -0.52633,-2.036618 -0.71469,-3.192053 z m 46.05972,0.03928 c -0.19208,1.168172 -0.44084,2.245943 -0.72863,3.223063 0.33448,-1.04277 0.57623,-2.120214 0.72863,-3.223063 z m -23.0265,0.0677 c 1.72768,-8e-6 4.22228,2.172363 4.20492,3.683493 -0.0177,1.54995 -3.64575,4.84753 -4.20492,4.85242 -0.52292,0.005 -4.19243,-3.09558 -4.20491,-4.85242 -0.0106,-1.48529 2.45136,-3.683493 4.20491,-3.683493 z"
         style="opacity:1;vector-effect:none;fill:#ffffff;fill-opacity:1;stroke:none;stroke-width:1.32731736;stroke-linecap:round;stroke-linejoin:round;stroke-miterlimit:4;stroke-dasharray:none;stroke-dashoffset:0;stroke-opacity:0.65490196;paint-order:fill markers stroke" />
      <path
         inkscape:connector-curvature="0"
         id="path10286"
         d="m 585.42695,72.125313 c -0.003,0.0016 -0.0135,0.003 -0.0156,0.0047 -0.004,0.0033 -0.006,0.0096 -0.007,0.01601 0.007,-0.0069 0.0151,-0.01373 0.0228,-0.02066 z m 8.02534,7.848615 c -2.34315,0.03635 -4.65566,0.351782 -6.77632,1.144117 -0.36788,0.13743 -0.62982,0.271285 -0.76121,0.392223 -0.7879,0.681194 -1.55998,1.213348 -2.37297,1.276409 -0.7216,1.104741 -1.29032,2.307685 -1.69087,3.572391 -0.0154,0.04806 -0.0306,0.09604 -0.0455,0.144179 -0.67405,2.171737 -0.9108,4.291243 -0.94361,6.191353 -0.23868,10.3965 4.31748,16.28142 5.37539,15.87397 1.29981,-0.50063 -0.39931,-7.0772 0.43098,-15.542209 0.16867,-1.609037 0.39772,-3.255661 0.87383,-4.717542 0.0106,-0.03266 0.0212,-0.06523 0.0321,-0.09767 0.4695,-1.386348 1.06492,-2.58916 1.84536,-3.497461 0.72551,-0.911834 1.75884,-1.669725 2.82411,-2.300634 0.6808,-0.458213 1.47915,-0.369165 2.03142,0.08992 1.14054,1.231661 8.2692,8.184356 9.90893,8.269261 1.17409,0.04535 5.45793,-3.513553 8.3933,-6.470407 -4.00788,-1.570067 -8.13927,-2.825184 -12.34551,-3.73879 0,-2.65e-4 -0.003,2.65e-4 -0.006,0 -1.90161,-0.357349 -3.83301,-0.555646 -5.7676,-0.588076 -0.33538,-0.0056 -0.6705,-0.0061 -1.00512,-0.0011 z m 27.42986,7.918381 c 0.0382,0.105794 0.0766,0.210765 0.11316,0.318842 0.0109,0.03244 0.0214,0.06501 0.032,0.09767 0.47612,1.461881 0.70517,3.108505 0.87384,4.717542 0.83029,8.464997 -0.86884,15.041577 0.43098,15.542207 1.05788,0.40746 5.61406,-5.47748 5.37538,-15.873968 -0.019,-1.099428 -0.10983,-2.273694 -0.31057,-3.487642 -0.53993,0.138851 -1.08196,0.162676 -1.59162,0.125055 -0.67512,-0.04985 -1.29011,-0.2038 -1.85209,-0.364318 -1.05582,-0.30159 -2.07486,-0.672269 -3.07062,-1.075386 z m -27.14771,4.439005 a 0.42315436,0.42315436 0 0 0 -0.38499,0.590145 c 0.11573,0.278411 0.21373,0.564621 0.29196,0.855761 0.0572,0.212629 0.1025,0.42836 0.13902,0.64544 -0.004,0.0011 -0.009,0.0021 -0.013,0.0031 -0.22124,0.0539 -0.43923,0.119218 -0.6537,0.194818 -0.16029,-0.215419 -0.33065,-0.42372 -0.51263,-0.621149 -0.22945,-0.248931 -0.47533,-0.481886 -0.73536,-0.698667 a 0.42315436,0.42315436 0 0 0 -0.27181,-0.102836 0.42315436,0.42315436 0 0 0 -0.27027,0.751893 c 0.23156,0.193051 0.4509,0.401527 0.65524,0.623218 0.11594,0.125788 0.22656,0.25704 0.33279,0.391189 -0.30765,0.154692 -0.6034,0.331738 -0.88468,0.531233 -0.18862,-0.155239 -0.38383,-0.302339 -0.586,-0.439248 -0.28038,-0.189801 -0.57216,-0.362164 -0.8749,-0.513664 a 0.42315436,0.42315436 0 0 0 -0.20413,-0.04702 0.42315436,0.42315436 0 0 0 -0.17465,0.804085 c 0.26961,0.134929 0.53068,0.287263 0.78031,0.456303 0.26628,0.18029 0.51856,0.380717 0.75705,0.596347 a 0.54405558,0.54405558 0 0 0 0.79635,0.12609 c 0.62306,-0.46958 1.34567,-0.811186 2.10375,-0.995805 0.77073,-0.187721 1.578,-0.207118 2.31045,-0.0041 0.51506,0.14296 1.00319,0.398767 1.41335,0.741558 a 0.54405558,0.54405558 0 0 0 0.80666,-0.10387 c 0.23564,-0.212241 0.48562,-0.408707 0.74827,-0.586528 0.24964,-0.169029 0.5102,-0.322414 0.77981,-0.457338 a 0.42315436,0.42315436 0 0 0 -0.18759,-0.804084 0.42315436,0.42315436 0 0 0 -0.19119,0.04754 c -0.30279,0.151511 -0.59558,0.322831 -0.87593,0.51263 -0.19254,0.130371 -0.37814,0.270203 -0.55811,0.417547 -0.22043,-0.167513 -0.4549,-0.316323 -0.70022,-0.443902 0.11575,-0.14763 0.2372,-0.290457 0.36433,-0.428398 0.20434,-0.221681 0.42267,-0.430157 0.65424,-0.623218 a 0.42315436,0.42315436 0 0 0 -0.28218,-0.752409 0.42315436,0.42315436 0 0 0 -0.25993,0.101804 c -0.26003,0.216778 -0.50485,0.451284 -0.73432,0.700214 -0.19654,0.21321 -0.38037,0.437579 -0.5519,0.671277 -0.0446,-0.01381 -0.0888,-0.02832 -0.13385,-0.04082 -0.16275,-0.0452 -0.32708,-0.07874 -0.49194,-0.106968 0.034,-0.18351 0.075,-0.366009 0.12351,-0.546222 0.0783,-0.291137 0.1752,-0.577342 0.29093,-0.85576 a 0.42315436,0.42315436 0 0 0 -0.39687,-0.590145 0.42315436,0.42315436 0 0 0 -0.385,0.265099 c -0.12991,0.312621 -0.23918,0.634262 -0.3271,0.961183 -0.0611,0.227338 -0.1107,0.457542 -0.15089,0.689362 -0.0339,-2.65e-4 -0.0679,-0.0031 -0.10182,-0.0021 v 5.29e-4 c -0.19198,0.0011 -0.38303,0.01503 -0.57308,0.03514 -0.041,-0.242922 -0.0926,-0.484378 -0.15658,-0.722437 -0.0879,-0.326919 -0.19717,-0.648562 -0.32713,-0.961181 a 0.42315436,0.42315436 0 0 0 -0.39635,-0.265102 z m 18.89911,0 a 0.42315436,0.42315436 0 0 0 -0.38499,0.590145 c 0.1157,0.278411 0.21317,0.564621 0.29146,0.855761 0.0572,0.212629 0.10298,0.42836 0.13951,0.64544 -0.004,0.0011 -0.009,0.0021 -0.0135,0.0031 -0.22124,0.0539 -0.43921,0.119218 -0.6537,0.194818 -0.16029,-0.215419 -0.33063,-0.42372 -0.51264,-0.621149 -0.22942,-0.248931 -0.47532,-0.481886 -0.73535,-0.698667 a 0.42315436,0.42315436 0 0 0 -0.27131,-0.102836 0.42315436,0.42315436 0 0 0 -0.27024,0.751893 c 0.23154,0.193051 0.4504,0.401527 0.65474,0.623218 0.11594,0.125788 0.22706,0.25704 0.33329,0.391189 -0.30765,0.154692 -0.60394,0.331738 -0.88521,0.531233 -0.18857,-0.155239 -0.38378,-0.302339 -0.586,-0.439248 -0.28033,-0.189801 -0.57214,-0.362164 -0.8749,-0.513664 a 0.42315436,0.42315436 0 0 0 -0.2041,-0.04702 0.42315436,0.42315436 0 0 0 -0.17468,0.804085 c 0.26961,0.134929 0.53068,0.287263 0.78031,0.456303 0.26628,0.18029 0.51909,0.380717 0.75758,0.596347 a 0.54405558,0.54405558 0 0 0 0.79582,0.12609 c 0.62306,-0.46958 1.34572,-0.811186 2.10375,-0.995805 0.77073,-0.187721 1.57803,-0.207118 2.31045,-0.0041 0.51506,0.14296 1.00322,0.398767 1.41335,0.741558 a 0.54405558,0.54405558 0 0 0 0.80719,-0.10387 c 0.23564,-0.212241 0.48511,-0.408707 0.74777,-0.586528 0.24963,-0.169029 0.51069,-0.322414 0.78031,-0.457338 a 0.42315436,0.42315436 0 0 0 -0.18759,-0.804084 0.42315436,0.42315436 0 0 0 -0.19122,0.04754 c -0.30273,0.151511 -0.59608,0.322831 -0.87643,0.51263 -0.19254,0.130371 -0.37814,0.270203 -0.55809,0.417547 -0.22042,-0.167513 -0.45492,-0.316323 -0.70022,-0.443902 0.11573,-0.14763 0.23771,-0.290457 0.36484,-0.428398 0.20434,-0.221681 0.4227,-0.430157 0.65421,-0.623218 a 0.42315436,0.42315436 0 0 0 -0.28216,-0.752409 0.42315436,0.42315436 0 0 0 -0.25992,0.101804 c -0.26003,0.216778 -0.50488,0.451284 -0.73433,0.700214 -0.19653,0.21321 -0.38036,0.437579 -0.55189,0.671277 -0.0446,-0.01381 -0.0893,-0.02832 -0.13436,-0.04082 -0.16277,-0.0452 -0.32705,-0.07874 -0.49196,-0.106968 0.034,-0.18351 0.0755,-0.366009 0.12403,-0.546222 0.0783,-0.291137 0.17471,-0.577342 0.29041,-0.85576 a 0.42315436,0.42315436 0 0 0 -0.39687,-0.590145 0.42315436,0.42315436 0 0 0 -0.38447,0.265099 c -0.12991,0.312621 -0.23921,0.634262 -0.3271,0.961183 -0.0611,0.227338 -0.11068,0.457542 -0.15092,0.689362 -0.0339,-2.65e-4 -0.0679,-0.0031 -0.10179,-0.0021 v 5.29e-4 c -0.19201,0.0011 -0.38304,0.01503 -0.57309,0.03514 -0.041,-0.242922 -0.0926,-0.484378 -0.15658,-0.722437 -0.0879,-0.326919 -0.19719,-0.648562 -0.32713,-0.961181 a 0.42315436,0.42315436 0 0 0 -0.39634,-0.265102 z"
         style="opacity:1;vector-effect:none;fill:#000000;fill-opacity:1;stroke:none;stroke-width:3.31356978;stroke-linecap:round;stroke-linejoin:round;stroke-miterlimit:4;stroke-dasharray:none;stroke-dashoffset:0;stroke-opacity:0.65490196;paint-order:fill markers stroke" />
      <path
         inkscape:connector-curvature="0"
         id="circle10341"
         d="m 607.51134,60.084186 c -4.48905,0.03938 -8.95601,1.38811 -12.72532,3.840078 -4.00547,2.605569 -7.03125,6.209252 -10.39627,9.132258 -0.79558,0.69111 -1.70746,1.413761 -2.46753,2.404504 -0.38095,0.496575 -0.71734,1.059989 -0.94673,1.693955 -0.23035,0.636582 -0.34867,1.337728 -0.278,2.058786 0.11695,1.19293 0.66344,2.095363 0.99322,2.847372 1.55599,1.364247 2.86599,0.623231 4.22402,-0.550871 0.13139,-0.120938 0.39335,-0.254793 0.76121,-0.392223 2.42382,-0.905592 5.09801,-1.188067 7.78245,-1.143082 1.93458,0.03243 3.86601,0.230727 5.76762,0.588076 0.003,2.65e-4 0.005,-2.65e-4 0.006,0 5.34022,1.159915 10.56331,2.862178 15.56081,5.073076 2.61043,1.15485 5.24896,2.500008 8.16022,3.33158 0.56198,0.160518 1.17698,0.314471 1.85209,0.364318 0.67953,0.05016 1.41676,-0.0093 2.1296,-0.304374 0.23969,-0.0992 0.4055,-0.188193 0.51107,-0.23151 0.07,-0.02875 0.11107,-0.03693 0.12145,-0.03979 -0.0287,0.0016 0.10612,0.03843 0.41081,0.166915 1.2699,0.535519 2.41822,0.61014 3.16984,0.982885 0.74663,0.370287 1.48363,1.207987 2.60345,1.929598 0.11512,0.07418 0.22799,0.139523 0.34055,0.204639 -0.23053,0.677291 -0.35473,1.390484 -0.35449,2.106332 1.3e-4,1.718699 0.70551,3.427823 1.92082,4.643128 1.21531,1.215304 2.92441,1.920684 4.64312,1.920814 1.71913,5.3e-4 3.42728,-0.70545 4.64312,-1.920814 1.21584,-1.215368 1.92328,-2.924003 1.92341,-4.643128 0,-1.71955 -0.70545,-3.429288 -1.92135,-4.645194 -1.21589,-1.215906 -2.92563,-1.921872 -4.64518,-1.92133 -0.21577,1.6e-5 -0.43148,0.01117 -0.64595,0.03307 -0.94203,-1.600893 -2.00189,-3.090682 -3.02102,-4.56148 -3.25696,-4.700471 -6.40342,-9.638445 -10.53422,-13.842047 -4.09954,-4.171747 -9.24859,-7.584827 -15.11589,-8.720916 -1.47584,-0.285768 -2.97582,-0.417684 -4.47206,-0.404627 z m -12.68812,11.330575 v 0 c 4.06279,0.05786 7.89279,0.982776 11.39053,1.854152 4.87058,1.213379 11.54123,3.925962 14.50919,5.304584 2.5024,1.164918 5.12853,1.974029 8.16642,2.749187 l -0.0708,-0.01447 c 0.82542,0.148903 1.52408,0.36612 2.10478,0.709002 0.58068,0.342881 1.08908,0.869042 1.22629,1.579232 0.13719,0.710189 -0.14528,1.411033 -0.59428,1.96887 -0.44902,0.557837 -1.08145,1.05324 -1.92135,1.551845 -0.004,0.0013 -0.006,0.0027 -0.009,0.0041 -0.81957,0.475419 -1.7226,0.810922 -2.67425,0.984438 -2.43689,0.44432 -4.25336,-0.591756 -5.78413,-1.292945 -1.80015,-0.824582 -1.51099,-0.577905 -4.05713,-1.835546 -2.41604,-1.19338 -8.11961,-3.435226 -12.67571,-4.570265 -4.49029,-1.118645 -9.32714,-1.694548 -12.74495,-1.49965 -0.9661,0.06091 -1.82631,0.185941 -2.87837,0.421164 -0.86003,0.19228 -1.73305,0.491111 -2.70526,0.803052 -0.57785,0.211291 -0.87379,0.483219 -1.10175,0.736389 -0.11465,0.127301 -0.19831,0.244324 -0.33796,0.400492 -0.0698,0.07808 -0.14692,0.174201 -0.34417,0.294039 -0.19724,0.11983 -0.65698,0.230063 -1.01338,0.07906 -1.07182,-0.45413 -1.62999,-1.77234 -1.38956,-3.41013 0.003,-0.01394 0.006,-0.02802 0.009,-0.04186 0.20783,-1.101076 0.91016,-2.090346 1.80816,-3.076815 1.29416,-1.405507 3.05152,-2.681637 4.83743,-3.059761 0.68305,-0.135551 1.47831,-0.273846 2.11511,-0.369485 1.40006,-0.210262 2.78048,-0.287952 4.13411,-0.268719 z m 46.49071,17.382918 a 5.3485957,5.3485957 0 0 1 5.33558,5.347994 5.3485957,5.3485957 0 0 1 -5.34849,5.349028 5.3485957,5.3485957 0 0 1 -5.34903,-5.349028 5.3485957,5.3485957 0 0 1 0.22428,-1.524455 c 0.064,0.03386 0.13952,0.07052 0.19998,0.104386 0.85844,0.480848 1.75323,1.222065 2.93883,1.754415 0.29816,0.133882 0.67871,0.290023 1.15755,0.323495 0.24109,0.01683 0.50163,1.6e-5 0.77155,-0.07493 0.27221,-0.07557 0.54377,-0.208047 0.78444,-0.419613 0.26474,-0.23268 0.43791,-0.512522 0.54623,-0.800468 0.10716,-0.284985 0.14616,-0.56561 0.14624,-0.82424 1.8e-4,-0.513165 -0.1378,-0.920216 -0.24392,-1.232998 -0.31549,-0.929974 -0.71959,-1.810163 -1.16324,-2.653586 z"
         style="opacity:1;vector-effect:none;fill:#f10003;fill-opacity:1;stroke:none;stroke-width:13.66266441;stroke-linecap:round;stroke-linejoin:round;stroke-miterlimit:4;stroke-dasharray:none;stroke-dashoffset:0;stroke-opacity:0.65490196;paint-order:fill markers stroke" />
      <path
         sodipodi:nodetypes="sssss"
         inkscape:connector-curvature="0"
         id="path10351"
         d="m 608.48967,102.29891 c -0.0178,1.54994 -3.64582,4.84727 -4.205,4.85216 -0.52291,0.005 -4.19253,-3.09532 -4.20501,-4.85216 -0.0105,-1.4853 2.45147,-3.683944 4.20501,-3.683944 1.72768,-8e-6 4.22235,2.172804 4.205,3.683944 z"
         style="opacity:1;vector-effect:none;fill:#ff7f2a;fill-opacity:1;stroke:none;stroke-width:5.72430038;stroke-linecap:round;stroke-linejoin:round;stroke-miterlimit:4;stroke-dasharray:none;stroke-dashoffset:0;stroke-opacity:0.65490196;paint-order:fill markers stroke" />
    </g>
  </g>
</svg>
